<?xml version="1.0" standalone="no"?>
<!DOCTYPE svg PUBLIC "-//W3C//DTD SVG 20010904//EN"
 "http://www.w3.org/TR/2001/REC-SVG-20010904/DTD/svg10.dtd">
<svg version="1.0" xmlns="http://www.w3.org/2000/svg"
 width="164.000000pt" height="164.000000pt" viewBox="0 0 164.000000 164.000000"
 preserveAspectRatio="xMidYMid meet">
<metadata>
Created by potrace 1.14, written by Peter Selinger 2001-2017
</metadata>
<g transform="translate(0.000000,164.000000) scale(0.100000,-0.100000)"
fill="#000000" stroke="none">
<path d="M410 1428 c-217 -83 -397 -152 -399 -154 -7 -6 -7 -74 0 -86 5 -7 23
-13 41 -14 56 -2 58 -3 58 -27 0 -57 -24 -55 711 -56 647 -1 677 0 693 18 9
10 16 22 15 27 -6 33 2 40 46 38 51 -2 59 6 61 58 1 27 -4 39 -20 47 -38 19
-787 301 -799 300 -7 0 -190 -68 -407 -151z"/>
<path d="M278 1027 c-2 -7 -3 -152 -2 -324 0 -218 -2 -313 -10 -316 -6 -2 -37
-3 -69 -2 -40 1 -61 -3 -70 -13 -14 -17 -19 -84 -7 -92 4 -3 322 -5 707 -5
l698 1 1 39 c1 60 -14 71 -91 70 -39 -1 -66 3 -66 9 -1 6 -3 148 -4 316 -2
168 -3 310 -4 316 -1 11 -210 16 -212 5 0 -3 -2 -148 -3 -321 -2 -173 -4 -317
-4 -320 -1 -3 -49 -6 -107 -6 l-105 1 0 326 0 326 -110 0 -110 0 0 -327 0
-326 -102 2 c-57 1 -106 2 -109 3 -3 0 -5 143 -5 317 1 174 -1 319 -4 323 -9
13 -208 11 -212 -2z"/>
<path d="M99 222 c-61 -4 -90 -34 -94 -94 -1 -24 2 -49 8 -55 7 -10 182 -13
813 -13 636 0 804 3 805 13 9 81 -1 118 -36 137 -19 10 -175 13 -737 14 -392
1 -734 0 -759 -2z"/>
</g>
</svg>
